<svg width="126" height="63" viewBox="0 0 126 63" fill="none" xmlns="http://www.w3.org/2000/svg">
<path d="M5.73517 7.76274V15.0331C5.73517 17.1572 5.00138 18.3255 3.53379 18.5379C5.00138 18.7117 5.73517 19.851 5.73517 21.9558V29.3131C5.73517 29.6413 5.80276 29.8731 5.93793 30.0083C6.07311 30.1434 6.31448 30.211 6.66207 30.211H7.96552V32.2676H5.59034C4.68276 32.2676 4.03586 32.0455 3.64966 31.6014C3.28276 31.1572 3.09931 30.5103 3.09931 29.6607V22.68C3.09931 21.5986 2.9062 20.8069 2.52 20.3048C2.1338 19.8028 1.52552 19.5517 0.695173 19.5517H0.202759V17.5241H0.695173C1.52552 17.5241 2.1338 17.2731 2.52 16.771C2.9062 16.2496 3.09931 15.4386 3.09931 14.3379V7.44412C3.09931 5.70618 3.92966 4.83722 5.59034 4.83722H7.96552V6.89377H6.66207C6.31448 6.89377 6.07311 6.96135 5.93793 7.09653C5.80276 7.21239 5.73517 7.43448 5.73517 7.76274ZM13.9383 7.76274V15.0331C13.9383 17.1572 13.2045 18.3255 11.7369 18.5379C13.2045 18.7117 13.9383 19.851 13.9383 21.9558V29.3131C13.9383 29.6413 14.0059 29.8731 14.141 30.0083C14.2762 30.1434 14.5176 30.211 14.8652 30.211H16.1686V32.2676H13.7935C12.8859 32.2676 12.239 32.0455 11.8528 31.6014C11.4859 31.1572 11.3024 30.5103 11.3024 29.6607V22.68C11.3024 21.5986 11.1094 20.8069 10.7231 20.3048C10.3369 19.8028 9.72865 19.5517 8.89828 19.5517H8.40587V17.5241H8.89828C9.72865 17.5241 10.3369 17.2731 10.7231 16.771C11.1094 16.2496 11.3024 15.4386 11.3024 14.3379V7.44412C11.3024 5.70618 12.1328 4.83722 13.7935 4.83722H16.1686V6.89377H14.8652C14.5176 6.89377 14.2762 6.96135 14.141 7.09653C14.0059 7.21239 13.9383 7.43448 13.9383 7.76274ZM30.4409 15.062H27.7761V12.2814C27.7761 11.9338 27.7182 11.7117 27.6023 11.6152C27.5058 11.4993 27.2837 11.4414 26.9361 11.4414H25.4589C25.1113 11.4414 24.8796 11.4993 24.7637 11.6152C24.6478 11.7117 24.5899 11.9338 24.5899 12.2814V24.6496C24.5899 24.9972 24.6478 25.2289 24.7637 25.3448C24.8796 25.4413 25.1113 25.4896 25.4589 25.4896H26.9361C27.2837 25.4896 27.5058 25.4413 27.6023 25.3448C27.7182 25.2289 27.7761 24.9972 27.7761 24.6496V21.8979H30.4409V24.9683C30.4409 26.6868 29.5334 27.5462 27.7182 27.5462H24.6478C22.852 27.5462 21.9541 26.6868 21.9541 24.9683V11.9338C21.9541 10.2344 22.852 9.38481 24.6478 9.38481H27.7182C29.5334 9.38481 30.4409 10.2344 30.4409 11.9338V15.062ZM35.3058 13.382H38.4051C40.201 13.382 41.0989 14.2414 41.0989 15.96V24.9683C41.0989 26.6676 40.201 27.5172 38.4051 27.5172H35.3058C33.5293 27.5172 32.641 26.6676 32.641 24.9683V15.96C32.641 14.2414 33.5293 13.382 35.3058 13.382ZM38.521 24.5917V16.3076C38.521 15.96 38.463 15.7283 38.3472 15.6124C38.2313 15.4965 37.9996 15.4386 37.652 15.4386H36.0589C35.7113 15.4386 35.4796 15.4965 35.3637 15.6124C35.2672 15.7283 35.2189 15.96 35.2189 16.3076V24.5917C35.2189 24.9393 35.2672 25.171 35.3637 25.2869C35.4796 25.4027 35.7113 25.4607 36.0589 25.4607H37.652C37.9996 25.4607 38.2313 25.4027 38.3472 25.2869C38.463 25.171 38.521 24.9393 38.521 24.5917ZM48.7781 8.13929H51.385V27.5172H48.7781V26.3876C48.5271 27.1407 47.9285 27.5172 46.9823 27.5172H45.9395C44.2016 27.5172 43.3326 26.6676 43.3326 24.9683V15.931C43.3326 14.2124 44.2016 13.3531 45.9395 13.3531H46.9823C47.9285 13.3531 48.5271 13.7296 48.7781 14.4827V8.13929ZM46.8085 25.4027H47.8223C48.1699 25.4027 48.4112 25.3255 48.5464 25.171C48.7009 25.0166 48.7781 24.7559 48.7781 24.3889V16.4814C48.7781 16.1144 48.7009 15.8537 48.5464 15.6993C48.4112 15.5448 48.1699 15.4676 47.8223 15.4676H46.8085C46.4609 15.4676 46.2292 15.5255 46.1133 15.6414C45.9975 15.7572 45.9395 15.9793 45.9395 16.3076V24.5627C45.9395 24.9103 45.9975 25.142 46.1133 25.2579C46.2292 25.3544 46.4609 25.4027 46.8085 25.4027ZM56.5801 13.382H59.4187C61.2338 13.382 62.1415 14.2414 62.1415 15.96V21.2607H56.4353V24.6207C56.4353 24.9489 56.4932 25.171 56.609 25.2869C56.7249 25.4027 56.9566 25.4607 57.3042 25.4607H58.6366C58.9842 25.4607 59.2159 25.4027 59.3318 25.2869C59.4477 25.171 59.5056 24.9393 59.5056 24.5917V23.4331H62.0546V24.9683C62.0546 26.6676 61.1566 27.5172 59.3608 27.5172H56.5801C54.7842 27.5172 53.8863 26.6676 53.8863 24.9683V15.96C53.8863 14.2414 54.7842 13.382 56.5801 13.382ZM56.4353 19.3489H59.5635V16.2786C59.5635 15.9503 59.5056 15.7283 59.3897 15.6124C59.2931 15.4965 59.0711 15.4386 58.7235 15.4386H57.3042C56.9566 15.4386 56.7249 15.4965 56.609 15.6124C56.4932 15.7283 56.4353 15.9503 56.4353 16.2786V19.3489Z" fill="white"/>
<path d="M50.1393 49.2414H47.8511V31.109H50.7187L53.818 42.3476L56.9173 31.109H59.7849V49.2414H57.4966V35.9752L55.0056 45.3021H52.6304L50.1393 36.0042V49.2414ZM67.9712 35.1062H70.5781V49.2414H67.9712V48.1117C67.7202 48.8648 67.1216 49.2414 66.1754 49.2414H65.1326C63.3947 49.2414 62.5257 48.3918 62.5257 46.6924V35.1062H65.1326V46.2869C65.1326 46.6345 65.1906 46.8662 65.3064 46.9821C65.4223 47.0786 65.654 47.1269 66.0016 47.1269H67.0154C67.363 47.1269 67.6043 47.0497 67.7395 46.8952C67.894 46.7407 67.9712 46.48 67.9712 46.1131V35.1062ZM82.1129 35.1062L78.8688 41.8552L82.1129 49.2414H79.3322L76.204 41.8552L79.3322 35.1062H82.1129ZM73.1336 49.2414V29.8635H75.7405V49.2414H73.1336ZM88.2659 37.2207H86.3252V46.1711C86.3252 46.5186 86.3738 46.7504 86.4701 46.8662C86.5859 46.9628 86.8177 47.011 87.1652 47.011H88.2659V49.2414H86.4121C84.5975 49.2414 83.6894 48.3918 83.6894 46.6924V37.2207H82.357V35.1062H83.6894V32.7021H86.3252V35.1062H88.2659V37.2207ZM92.3428 35.1062H95.4421C97.238 35.1062 98.1359 35.9656 98.1359 37.6842V46.6924C98.1359 48.3918 97.238 49.2414 95.4421 49.2414H92.3428C90.5665 49.2414 89.678 48.3918 89.678 46.6924V37.6842C89.678 35.9656 90.5665 35.1062 92.3428 35.1062ZM95.558 46.3159V38.0317C95.558 37.6842 95.5001 37.4524 95.3842 37.3366C95.2683 37.2207 95.0366 37.1628 94.689 37.1628H93.0959C92.7484 37.1628 92.5166 37.2207 92.4008 37.3366C92.3045 37.4524 92.2559 37.6842 92.2559 38.0317V46.3159C92.2559 46.6635 92.3045 46.8952 92.4008 47.011C92.5166 47.1269 92.7484 47.1848 93.0959 47.1848H94.689C95.0366 47.1848 95.2683 47.1269 95.3842 47.011C95.5001 46.8952 95.558 46.6635 95.558 46.3159ZM106.729 31.109H109.509C111.305 31.109 112.203 31.949 112.203 33.629V38.9007C112.203 40.5807 111.305 41.4207 109.509 41.4207H109.133L109.017 43.3324H106.815L106.584 39.5379H108.756C109.085 39.5379 109.297 39.48 109.393 39.3642C109.509 39.229 109.567 38.9972 109.567 38.669V34.0055C109.567 33.6773 109.509 33.4552 109.393 33.3393C109.297 33.2041 109.085 33.1366 108.756 33.1366H107.482C107.154 33.1366 106.931 33.2041 106.815 33.3393C106.719 33.4552 106.671 33.6773 106.671 34.0055V36.0911H104.035V33.629C104.035 31.949 104.933 31.109 106.729 31.109ZM106.439 49.2414V45.6786H109.364V49.2414H106.439ZM122.219 40.1462L114.196 37.6552V35.3379L124.681 38.8138V41.4786L114.196 45.0124V42.6662L122.219 40.1462Z" fill="white"/>
</svg>
