<svg width="431" height="406" viewBox="0 0 431 406" fill="none" xmlns="http://www.w3.org/2000/svg">
<g clip-path="url(#clip0)">
<path d="M312.908 230.389V342.543L331.661 373.117L333.088 375.442H407.083L408.578 230.389H312.908Z" fill="#E6E6E6"/>
<path opacity="0.1" d="M312.908 230.389V342.543L331.661 373.117L332.812 230.389H312.908Z" fill="black"/>
<path d="M134.275 227.397V339.553L115.522 370.126L114.095 372.451H40.1009L38.6058 227.397H134.275Z" fill="#E6E6E6"/>
<path opacity="0.1" d="M134.275 227.397V339.553L115.522 370.126L114.371 227.397H134.275Z" fill="black"/>
<path d="M431 225.155V231.884H28.8894V222.164L66.2601 202.723H398.114L431 225.155Z" fill="#E6E6E6"/>
<path opacity="0.1" d="M431 225.155V231.884H28.8894V222.164L431 225.155Z" fill="black"/>
<path d="M86.4408 258.801H68.5024L61.0283 253.567H94.6622L86.4408 258.801Z" fill="#3F3D56"/>
<path d="M86.4408 280.484H68.5024L61.0283 275.25H94.6622L86.4408 280.484Z" fill="#3F3D56"/>
<path d="M86.4408 311.14H68.5024L61.0283 305.906H94.6622L86.4408 311.14Z" fill="#3F3D56"/>
<path d="M86.4408 341.796H68.5024L61.0283 336.562H94.6622L86.4408 341.796Z" fill="#3F3D56"/>
<path d="M360.743 261.792H378.681L386.155 256.558H352.521L360.743 261.792Z" fill="#3F3D56"/>
<path d="M360.743 283.475H378.681L386.155 278.241H352.521L360.743 283.475Z" fill="#3F3D56"/>
<path d="M360.743 314.131H378.681L386.155 308.897H352.521L360.743 314.131Z" fill="#3F3D56"/>
<path d="M360.743 344.786H378.681L386.155 339.553H352.521L360.743 344.786Z" fill="#3F3D56"/>
<path d="M372.958 73.0275H221.945C221.195 73.0274 220.452 73.1751 219.759 73.4622C219.066 73.7493 218.437 74.1701 217.906 74.7006C217.376 75.2312 216.955 75.8611 216.668 76.5543C216.381 77.2475 216.234 77.9905 216.234 78.7408V180.506C216.234 181.256 216.381 181.999 216.668 182.692C216.955 183.385 217.376 184.015 217.906 184.546C218.437 185.076 219.066 185.497 219.759 185.784C220.452 186.071 221.195 186.219 221.945 186.219H279.271L277.123 199.936C277.123 199.936 264.849 206.459 273.479 206.651C282.109 206.843 322.766 206.651 322.766 206.651C322.766 206.651 330.629 206.651 318.164 199.744L316.143 186.219H372.958C373.708 186.219 374.451 186.071 375.144 185.784C375.837 185.497 376.466 185.076 376.997 184.546C377.527 184.015 377.948 183.385 378.235 182.692C378.522 181.999 378.669 181.256 378.669 180.506V78.7408C378.669 77.9905 378.522 77.2475 378.235 76.5543C377.948 75.8611 377.527 75.2312 376.997 74.7006C376.466 74.1701 375.837 73.7493 375.144 73.4622C374.451 73.1751 373.708 73.0274 372.958 73.0275Z" fill="#3F3D56"/>
<path d="M373.204 79.0708H221.699V163.869H373.204V79.0708Z" fill="#F2F2F2"/>
<path d="M297.452 77.3441C297.981 77.3441 298.41 76.9146 298.41 76.3848C298.41 75.8551 297.981 75.4256 297.452 75.4256C296.922 75.4256 296.493 75.8551 296.493 76.3848C296.493 76.9146 296.922 77.3441 297.452 77.3441Z" fill="#F2F2F2"/>
<path d="M297.451 182.094C299.464 182.094 301.095 180.462 301.095 178.449C301.095 176.436 299.464 174.804 297.451 174.804C295.439 174.804 293.808 176.436 293.808 178.449C293.808 180.462 295.439 182.094 297.451 182.094Z" fill="#F2F2F2"/>
<path d="M291.774 217.011V218.93H188.597V217.395L188.739 217.011L191.282 210.104H289.664L291.774 217.011Z" fill="#3F3D56"/>
<path d="M331.479 215.133C331.291 215.937 330.582 216.785 328.978 217.587C323.225 220.464 311.526 216.819 311.526 216.819C311.526 216.819 302.513 215.284 302.513 211.256C302.766 211.082 303.03 210.925 303.303 210.785C305.722 209.505 313.742 206.346 327.963 210.919C329.01 211.248 329.946 211.862 330.666 212.691C330.985 213.005 331.225 213.39 331.366 213.814C331.507 214.239 331.546 214.691 331.479 215.133Z" fill="#3F3D56"/>
<path opacity="0.1" d="M331.479 215.133C324.437 217.832 318.16 218.034 311.718 213.558C309.282 211.756 306.332 210.784 303.303 210.785C305.722 209.505 313.742 206.346 327.963 210.919C329.01 211.248 329.946 211.862 330.666 212.691C330.985 213.005 331.225 213.39 331.366 213.814C331.507 214.239 331.546 214.691 331.479 215.133Z" fill="black"/>
<path d="M322.65 213.558C324.026 213.558 325.143 213.214 325.143 212.79C325.143 212.367 324.026 212.023 322.65 212.023C321.273 212.023 320.156 212.367 320.156 212.79C320.156 213.214 321.273 213.558 322.65 213.558Z" fill="#F2F2F2"/>
<path opacity="0.1" d="M291.774 217.011V218.93H188.597V217.395L188.739 217.011H291.774Z" fill="black"/>
<path d="M57.3675 0.00012202C56.3204 -0.085884 55.2719 0.148437 54.3609 0.672037C53.4664 1.28484 52.9026 2.35841 52.3271 3.35743C50.1268 7.2227 47.1481 10.5887 43.5795 13.2422C40.9803 15.1471 37.6758 17.5222 38.1205 21.0343C38.3551 22.1941 38.7834 23.3061 39.3874 24.3235C41.7852 29.1657 48.3285 32.9077 47.6849 38.433C50.0672 34.4433 46.8807 32.4705 49.263 28.4808C50.3975 26.5808 52.3684 24.436 54.0812 25.6292C54.6548 26.0287 55.0314 26.7453 55.6285 27.0959C57.0534 27.9323 58.5693 26.3332 59.8307 25.2005C64.18 21.2946 70.3652 22.3179 75.7776 23.5349C78.3328 24.1094 81.1393 24.8632 82.6498 27.3062C84.6357 30.5183 80.763 33.9874 79.7844 37.6189C79.7046 37.9284 79.7008 38.2526 79.7734 38.5638C79.8461 38.875 79.993 39.164 80.2017 39.406C80.4103 39.6481 80.6744 39.8359 80.9715 39.9536C81.2685 40.0713 81.5896 40.1152 81.9073 40.0816C83.5313 39.9214 85.4551 39.79 85.5512 39.0771C87.5945 39.1499 90.0981 38.9184 90.9735 36.79C91.2411 35.9479 91.3825 35.0708 91.3932 34.1872C91.7145 30.612 93.2314 27.3503 94.2362 23.9476C95.2411 20.5448 95.678 16.557 93.9822 13.5401C93.377 12.5363 92.6286 11.6263 91.7605 10.8389C82.1374 1.52265 69.4851 -0.0137067 57.3675 0.00012202Z" fill="#2F2E41"/>
<path d="M49.7778 45.4118C49.7778 45.4118 51.8706 62.8589 44.1968 64.2547C36.523 65.6505 51.173 89.3786 51.173 89.3786L86.0541 93.5658L77.6826 65.6505C77.6826 65.6505 72.1016 63.5568 75.5898 49.5991C79.0779 35.6414 49.7778 45.4118 49.7778 45.4118Z" fill="#FFB8B8"/>
<path d="M28.5003 345.153L31.2911 383.537H45.9406L41.7554 345.153H28.5003Z" fill="#FFB8B8"/>
<path d="M135.934 272.573L138.027 304.676L154.072 297.697L147.793 271.178L135.934 272.573Z" fill="#FFB8B8"/>
<path d="M18.036 198.597C18.036 198.597 18.7336 239.075 22.9194 252.335C27.1051 265.594 26.4075 266.292 25.7099 268.386C25.0122 270.48 24.3146 269.084 24.3146 272.573C24.3146 276.063 22.9194 331.196 24.3146 336.081C25.7099 340.966 20.1289 349.341 24.3146 350.038C28.5003 350.736 48.0337 350.038 48.7314 345.851C49.429 341.664 43.1504 340.268 45.9409 337.477C48.7314 334.685 52.9171 277.458 52.9171 277.458L62.6838 237.679L80.8219 216.742H119.191L131.051 262.803C131.051 262.803 126.167 276.063 129.655 276.063C133.144 276.063 154.072 280.25 154.072 264.897C154.072 249.543 147.096 204.181 145.701 202.785C144.305 201.389 146.398 196.504 144.305 194.41C142.213 192.317 117.796 177.661 108.727 174.869C99.6577 172.078 86.9353 168.755 86.9353 168.755L18.036 198.597Z" fill="#2F2E41"/>
<path d="M154.072 292.114C154.072 292.114 143.608 288.625 138.724 299.093C133.841 309.561 135.934 312.353 135.934 312.353C135.934 312.353 151.979 317.936 154.77 315.144C155.984 313.93 159.839 313.508 163.807 313.419C169.851 313.283 171.459 304.729 165.751 302.737C165.581 302.678 165.408 302.626 165.234 302.582C159.653 301.187 154.072 292.114 154.072 292.114Z" fill="#2F2E41"/>
<path d="M65.4742 56.9269C77.0328 56.9269 86.4029 47.5533 86.4029 35.9904C86.4029 24.4274 77.0328 15.0538 65.4742 15.0538C53.9157 15.0538 44.5456 24.4274 44.5456 35.9904C44.5456 47.5533 53.9157 56.9269 65.4742 56.9269Z" fill="#FFB8B8"/>
<path d="M38.267 72.9782C38.267 72.9782 72.4504 79.9571 80.8219 68.7909C89.1934 57.6247 92.6815 100.196 92.6815 100.196L96.8672 144.86L90.5886 169.286C90.5886 169.286 57.8004 195.806 47.3361 197.9C36.8718 199.993 20.8265 201.389 20.8265 201.389C20.8265 201.389 25.7099 123.924 25.7099 122.528C25.7099 121.132 38.267 72.9782 38.267 72.9782Z" fill="#536DFE"/>
<path d="M48.663 59.8897C48.663 59.8897 41.0575 55.5312 38.9646 59.7185C36.8718 63.9058 17.3384 74.374 15.2455 74.374C13.1527 74.374 19.4313 132.298 16.6408 139.277C13.8503 146.256 0.595481 197.202 8.26932 201.389C15.9432 205.576 10.3622 197.202 18.036 207.67C25.7098 218.138 63.3814 218.138 65.4742 213.951C67.5671 209.764 48.7313 178.359 52.2194 149.048C55.7076 119.737 61.2885 79.2592 56.4052 73.6762C51.5218 68.0931 48.663 59.8897 48.663 59.8897Z" fill="#2F2E41"/>
<path d="M73.8457 64.6036L74.8174 61.2583C74.8174 61.2583 103.843 70.8846 105.239 77.1656C106.634 83.4465 105.936 127.413 101.053 130.903C96.1696 134.392 89.1934 139.975 94.0767 148.35C98.9601 156.724 104.541 165.797 108.727 166.495C112.913 167.193 120.586 172.078 118.493 176.963C116.401 181.848 91.2863 172.776 91.2863 172.776C91.2863 172.776 74.5433 160.214 75.241 140.673C75.9386 121.132 73.8457 64.6036 73.8457 64.6036Z" fill="#2F2E41"/>
<path d="M98.2624 146.954L81.5195 178.359C81.5195 178.359 57.1028 203.483 71.0552 206.274C85.0077 209.066 92.6815 183.244 92.6815 183.244L110.82 157.422L98.2624 146.954Z" fill="#FFB8B8"/>
<path d="M58.3871 5.47808C57.5435 5.41555 56.6985 5.5795 55.9395 5.95299C55.2532 6.4544 54.6876 7.10287 54.2839 7.85101C52.4232 10.651 49.9976 13.0308 47.163 14.8375C45.0472 16.1839 42.3572 17.8626 42.7192 20.3449C42.9157 21.1772 43.2654 21.9655 43.7505 22.6697C45.7092 26.1267 46.4889 30.1279 45.9717 34.0677L51.7897 25.608C52.7132 24.2651 54.3176 22.7492 55.7119 23.5926C56.1788 23.875 56.4854 24.3814 56.9715 24.6292C58.1314 25.2204 59.3654 24.0902 60.3922 23.2896C63.9327 20.5289 68.9678 21.2521 73.3737 22.1123C75.4537 22.5184 77.7383 23.0511 78.9679 24.7778C81.0112 27.6473 78.8776 31.7935 80.0702 35.1085C80.404 34.8747 80.6875 34.5762 80.9039 34.2307C81.1202 33.8853 81.2651 33.4999 81.3298 33.0974C82.9931 33.1489 85.0311 32.9853 85.7438 31.4809C85.9605 30.8914 86.076 30.2694 86.0854 29.6413C86.347 27.1143 87.5817 24.809 88.3997 22.404C89.2177 19.9989 89.5734 17.1804 88.193 15.048C87.688 14.3255 87.0785 13.6821 86.3844 13.1388C78.5508 6.55419 68.2513 5.46831 58.3871 5.47808Z" fill="#2F2E41"/>
<path d="M98.2624 74.374L104.762 76.0999C104.762 76.0999 119.889 114.851 116.401 141.371C112.912 167.891 110.82 162.307 110.82 162.307C110.82 162.307 105.239 149.746 92.6815 152.537L98.2624 74.374Z" fill="#2F2E41"/>
<path d="M29.4668 378.464C27.7846 380.751 28.1219 384.02 26.6317 386.437C25.34 388.532 22.9056 389.63 21.2899 391.486C20.7744 392.103 20.3148 392.764 19.9166 393.463C18.4178 395.974 17.1995 399.193 18.6756 401.718C19.8631 403.749 22.359 404.543 24.648 405.084C27.5413 405.767 30.5473 406.315 33.474 405.792C36.4006 405.27 39.2608 403.477 40.3043 400.692C40.5094 399.992 40.7532 399.304 41.0346 398.63C42.6209 395.506 47.5964 395.473 49.2198 392.368C50.3559 390.195 49.3116 387.568 48.2677 385.35L45.0793 378.574C44.0212 376.325 39.7319 377.618 37.4958 377.079C34.5794 376.377 31.5649 375.602 29.4668 378.464Z" fill="#2F2E41"/>
<path d="M6.17645 160.912L35.4765 206.274C35.4765 206.274 53.6147 229.304 59.1956 218.836C64.7766 208.368 39.6623 190.921 39.6623 190.921L20.8265 156.027L6.17645 160.912Z" fill="#FFB8B8"/>
<path d="M20.8265 75.7697L15.2455 74.374C15.2455 74.374 4.08358 77.8634 1.2931 92.519C-1.49738 107.175 0.595475 165.797 4.08358 166.495C7.57168 167.193 21.3113 156.287 23.5106 158.6C25.7098 160.912 18.7336 149.048 20.8265 142.767C22.9193 136.486 20.8265 75.7697 20.8265 75.7697Z" fill="#2F2E41"/>
<path d="M283.112 106.921H265.081V111.264H283.112V106.921Z" fill="#536DFE"/>
<path d="M345.552 106.921H339.207V111.264H345.552V106.921Z" fill="#536DFE"/>
<path d="M358.24 106.921H351.896V111.264H358.24V106.921Z" fill="#536DFE"/>
<path d="M332.529 106.921H289.456V111.264H332.529V106.921Z" fill="#536DFE"/>
<path d="M260.406 134.98H242.376V139.322H260.406V134.98Z" fill="#536DFE"/>
<path d="M322.846 134.98H316.502V139.322H322.846V134.98Z" fill="#536DFE"/>
<path d="M335.535 134.98H329.19V139.322H335.535V134.98Z" fill="#536DFE"/>
<path d="M309.824 134.98H266.75V139.322H309.824V134.98Z" fill="#536DFE"/>
<path d="M334.867 116.608H316.836V120.95H334.867V116.608Z" fill="#536DFE"/>
<path d="M359.242 116.608H341.211V120.95H359.242V116.608Z" fill="#536DFE"/>
<path d="M248.72 116.608H242.376V120.95H248.72V116.608Z" fill="#536DFE"/>
<path d="M261.408 116.608H255.064V120.95H261.408V116.608Z" fill="#536DFE"/>
<path d="M310.826 116.608H267.752V120.95H310.826V116.608Z" fill="#536DFE"/>
<path d="M297.47 125.961H279.439V130.303H297.47V125.961Z" fill="#536DFE"/>
<path d="M273.095 125.961H255.064V130.303H273.095V125.961Z" fill="#536DFE"/>
<path d="M248.72 125.961H242.376V130.303H248.72V125.961Z" fill="#536DFE"/>
<path d="M359.242 125.961H352.897V130.303H359.242V125.961Z" fill="#536DFE"/>
<path d="M346.553 125.961H303.48V130.303H346.553V125.961Z" fill="#536DFE"/>
</g>
<defs>
<clipPath id="clip0">
<rect width="431" height="406" fill="white"/>
</clipPath>
</defs>
</svg>
