<svg width="157" height="98" viewBox="0 0 157 98" fill="none" xmlns="http://www.w3.org/2000/svg">
<path d="M121.363 29.5774C124.522 31.2043 127.61 32.8692 130.627 34.5719" stroke="#C9D1FE" stroke-miterlimit="10"/>
<path d="M62.5737 19.4964C76.3532 22.4034 91.397 27.4218 106.552 34.5043C117.529 39.6001 128.033 45.6147 137.945 52.4805" stroke="#C9D1FE" stroke-miterlimit="10"/>
<path d="M49.6802 17.3449C53.8209 17.8416 58.1317 18.5593 62.5738 19.4965" stroke="#C9D1FE" stroke-miterlimit="10"/>
<path d="M9.15785 59.497C1.50782 48.5742 -1.12016 38.2541 2.81035 30.2481C7.15765 21.3931 18.7944 16.8634 34.5685 16.5298" stroke="#C9D1FE" stroke-miterlimit="10"/>
<path d="M137.945 52.4805C144.335 56.9023 150.375 61.7868 156.014 67.0926" stroke="#C9D1FE" stroke-miterlimit="10"/>
<path d="M4.92212 3.72882C17.6205 1.06718 34.053 1.54031 52.431 5.07484" stroke="#C9D1FE" stroke-miterlimit="10"/>
<path d="M130.626 34.5719C136.329 37.7886 141.754 41.1154 146.902 44.5525" stroke="#C9D1FE" stroke-miterlimit="10"/>
<path d="M106.716 43.7373H110.088C110.088 43.7373 113.18 67.0456 110.932 69.2393C108.683 71.433 102.5 72.8041 101.657 69.2393C100.814 65.6745 101.657 52.5122 101.657 52.5122L106.716 43.7373Z" fill="#6C63FF"/>
<path d="M84.6528 46.8907C95.984 46.8907 105.17 36.3939 105.17 23.4454C105.17 10.4968 95.984 0 84.6528 0C73.3215 0 64.1357 10.4968 64.1357 23.4454C64.1357 36.3939 73.3215 46.8907 84.6528 46.8907Z" fill="#111112"/>
<path d="M80.0154 27.8328C80.0154 27.8328 81.1396 36.8819 77.767 38.8014C74.3943 40.7209 81.7017 51.6895 81.7017 51.6895L90.4145 53.8832L96.3166 45.931L95.1924 37.7045C95.1924 37.7045 88.4471 31.1234 91.5387 25.0906L80.0154 27.8328Z" fill="#FFC1C7"/>
<path opacity="0.1" d="M80.0154 27.8328C80.0154 27.8328 81.1396 36.8819 77.767 38.8014C74.3943 40.7209 81.7017 51.6895 81.7017 51.6895L90.4145 53.8832L96.3166 45.931L95.1924 37.7045C95.1924 37.7045 88.4471 31.1234 91.5387 25.0906L80.0154 27.8328Z" fill="black"/>
<path d="M84.653 31.5348C90.5515 31.5348 95.3331 26.8695 95.3331 21.1146C95.3331 15.3597 90.5515 10.6944 84.653 10.6944C78.7546 10.6944 73.9729 15.3597 73.9729 21.1146C73.9729 26.8695 78.7546 31.5348 84.653 31.5348Z" fill="#FFC1C7"/>
<path d="M110.088 95.5805C110.088 95.5805 100.709 99.1453 97.6173 95.5805C94.5257 92.0157 71.3663 96.3457 66.5883 95.2488C66.5883 95.5805 66.6232 93.9222 66.5883 95.2488C66.5883 88.4785 69.6051 83.2706 70.8727 78.5102C71.2999 76.9088 71.5837 75.9353 71.5837 75.9353C71.5837 75.9353 74.4674 67.931 73.9278 64.6048C73.8912 64.3526 73.8203 64.1064 73.717 63.8726C73.672 63.7748 73.6164 63.6819 73.5511 63.5957C72.2048 61.8434 68.346 49.065 66.8479 43.578C66.6034 42.7659 66.4017 41.9422 66.2437 41.11C66.2437 40.2874 76.6427 37.8195 79.2425 37.7015C81.8451 37.5836 82.5449 41.11 82.5449 41.11C83.3881 41.6585 87.3229 51.256 87.3229 51.256L90.9766 42.2069C90.9766 42.2069 90.6955 40.2874 90.4145 40.2874C90.1334 40.2874 94.5713 37.6988 94.5713 37.6988C94.5713 37.6988 99.1272 40.8358 101.657 40.2874C104.186 39.739 110.088 44.6748 110.088 44.6748C110.088 44.6748 99.6893 70.1768 103.905 75.6611C108.121 81.1454 110.088 95.5805 110.088 95.5805Z" fill="#6C63FF"/>
<path opacity="0.1" d="M73.5511 62.9323C72.2048 61.18 68.3459 48.4017 66.8479 42.9146H68.211C68.211 42.9146 71.6343 55.9864 73.7169 63.2092C73.6719 63.1114 73.6163 63.0186 73.5511 62.9323Z" fill="black"/>
<path opacity="0.1" d="M92.1009 81.0305C92.1009 81.0305 88.1661 81.3047 73.8323 78.5626C72.8335 78.3754 71.8456 78.1365 70.8728 77.8469C71.3 76.2455 71.5839 75.272 71.5839 75.272C71.5839 75.272 74.4675 67.2677 73.9279 63.9414C74.5996 66.2448 75.0999 67.7996 75.2376 67.8682C75.7997 68.1424 93.7872 71.1588 96.3168 72.2556C98.8463 73.3525 92.1009 81.0305 92.1009 81.0305Z" fill="black"/>
<path opacity="0.1" d="M97.1599 45.1415C97.1599 45.1415 104.912 44.2083 105.392 45.4347C105.873 46.661 107.84 58.5129 108.683 60.0324C109.526 61.5518 109.807 70.9726 106.435 71.2765C103.062 71.5803 98.5652 68.2375 99.4084 65.5025C100.252 62.7674 97.1599 45.1415 97.1599 45.1415Z" fill="black"/>
<path d="M93.2251 70.3361C93.2251 70.3361 105.029 71.7072 106.997 70.3361C108.964 68.9651 117.115 68.9651 115.428 72.804C113.742 76.643 99.1272 76.9172 99.1272 76.9172H90.6956L93.2251 70.3361Z" fill="#FFC1C7"/>
<path d="M68.2111 40.9951H66.2437C66.2437 40.9951 62.3089 41.8177 62.871 53.8832C63.4332 65.9487 59.4984 73.9009 73.8322 76.643C88.166 79.3852 92.1008 79.111 92.1008 79.111C92.1008 79.111 98.8461 71.4329 96.3166 70.3361C93.7871 69.2393 75.7996 66.2229 75.2375 65.9487C74.6753 65.6744 68.2111 40.9951 68.2111 40.9951Z" fill="#6C63FF"/>
<path d="M105.176 46.4075C105.176 46.4075 100.251 28.3812 96.3166 28.3812C92.3819 28.3812 87.885 29.2039 91.2576 32.7687C94.6303 36.3335 98.8461 40.1725 99.1272 42.092C99.4083 44.0115 100.532 46.7536 100.532 46.7536L105.176 46.4075Z" fill="#FFC1C7"/>
<path d="M98.2842 45.1415C98.2842 45.1415 106.036 44.2083 106.517 45.4347C106.997 46.661 108.964 58.5129 109.807 60.0324C110.651 61.5518 110.932 70.9726 107.559 71.2765C104.186 71.5803 99.6894 68.2375 100.533 65.5025C101.376 62.7674 98.2842 45.1415 98.2842 45.1415Z" fill="#6C63FF"/>
<path d="M81.8424 21.1145C87.4304 21.1145 91.9604 16.6948 91.9604 11.2428C91.9604 5.79081 87.4304 1.37109 81.8424 1.37109C76.2544 1.37109 71.7244 5.79081 71.7244 11.2428C71.7244 16.6948 76.2544 21.1145 81.8424 21.1145Z" fill="#171718"/>
</svg>
